<svg xmlns="http://www.w3.org/2000/svg" viewBox="0 0 100 100">
  <defs>
    <linearGradient id="grad1" x1="0%" y1="0%" x2="100%" y2="100%">
      <stop offset="0%" style="stop-color:#7c3aed;stop-opacity:1" />
      <stop offset="100%" style="stop-color:#db2777;stop-opacity:1" />
    </linearGradient>
  </defs>
  
  <circle cx="50" cy="50" r="48" fill="url(#grad1)"/>
  
  <path d="M42 22 V62 C42 68.6 36.6 74 30 74 C23.4 74 18 68.6 18 62 C18 55.4 23.4 50 30 50 C33.1 50 35.9 51.1 38 53 V32 L72 24 V54 C72 60.6 66.6 66 60 66 C53.4 66 48 60.6 48 54 C48 47.4 53.4 42 60 42 C63.1 42 65.9 43.1 68 45 V22 Z" fill="white" />
</svg>
